<svg width="124" height="48" viewBox="0 0 124 48" fill="none" xmlns="http://www.w3.org/2000/svg">
<rect width="124" height="48" rx="8" fill="#F2726F"/>
<path d="M30.6582 26.6289V28H26.3633V26.6289H30.6582ZM26.9316 19.4688V28H25.1738V19.4688H26.9316ZM37.5406 26.6289V28H32.9996V26.6289H37.5406ZM33.5738 19.4688V28H31.816V19.4688H33.5738ZM36.9488 22.9434V24.2793H32.9996V22.9434H36.9488ZM37.5348 19.4688V20.8457H32.9996V19.4688H37.5348ZM42.1848 20.9277L39.8645 28H37.9953L41.1652 19.4688H42.3547L42.1848 20.9277ZM44.1125 28L41.7863 20.9277L41.5988 19.4688H42.8L45.9875 28H44.1125ZM44.007 24.8242V26.2012H39.5012V24.8242H44.007ZM46.9285 19.4688H50.1102C50.7625 19.4688 51.323 19.5664 51.7918 19.7617C52.2645 19.957 52.6277 20.2461 52.8816 20.6289C53.1355 21.0117 53.2625 21.4824 53.2625 22.041C53.2625 22.498 53.1844 22.8906 53.0281 23.2188C52.8758 23.543 52.659 23.8145 52.3777 24.0332C52.1004 24.248 51.7742 24.4199 51.3992 24.5488L50.8426 24.8418H48.077L48.0652 23.4707H50.1219C50.4305 23.4707 50.6863 23.416 50.8895 23.3066C51.0926 23.1973 51.2449 23.0449 51.3465 22.8496C51.452 22.6543 51.5047 22.4277 51.5047 22.1699C51.5047 21.8965 51.4539 21.6602 51.3523 21.4609C51.2508 21.2617 51.0965 21.1094 50.8895 21.0039C50.6824 20.8984 50.4227 20.8457 50.1102 20.8457H48.6863V28H46.9285V19.4688ZM51.698 28L49.7527 24.1973L51.6102 24.1855L53.5789 27.918V28H51.698ZM61.7094 19.4688V28H59.9516L56.5238 22.2812V28H54.766V19.4688H56.5238L59.9574 25.1934V19.4688H61.7094ZM67.3297 19.4688H68.818L71.0094 25.7324L73.2008 19.4688H74.6891L71.607 28H70.4117L67.3297 19.4688ZM66.527 19.4688H68.0094L68.2789 25.5742V28H66.527V19.4688ZM74.0094 19.4688H75.4977V28H73.7398V25.5742L74.0094 19.4688ZM84.1965 23.5352V23.9395C84.1965 24.5879 84.1086 25.1699 83.9328 25.6855C83.757 26.2012 83.509 26.6406 83.1887 27.0039C82.8684 27.3633 82.4855 27.6387 82.0402 27.8301C81.5988 28.0215 81.1086 28.1172 80.5695 28.1172C80.0344 28.1172 79.5441 28.0215 79.0988 27.8301C78.6574 27.6387 78.2746 27.3633 77.9504 27.0039C77.6262 26.6406 77.3742 26.2012 77.1945 25.6855C77.0188 25.1699 76.9309 24.5879 76.9309 23.9395V23.5352C76.9309 22.8828 77.0188 22.3008 77.1945 21.7891C77.3703 21.2734 77.6184 20.834 77.9387 20.4707C78.2629 20.1074 78.6457 19.8301 79.0871 19.6387C79.5324 19.4473 80.0227 19.3516 80.5578 19.3516C81.0969 19.3516 81.5871 19.4473 82.0285 19.6387C82.4738 19.8301 82.8566 20.1074 83.177 20.4707C83.5012 20.834 83.7512 21.2734 83.927 21.7891C84.1066 22.3008 84.1965 22.8828 84.1965 23.5352ZM82.4211 23.9395V23.5234C82.4211 23.0703 82.3801 22.6719 82.298 22.3281C82.216 21.9844 82.0949 21.6953 81.9348 21.4609C81.7746 21.2266 81.5793 21.0508 81.3488 20.9336C81.1184 20.8125 80.8547 20.752 80.5578 20.752C80.2609 20.752 79.9973 20.8125 79.7668 20.9336C79.5402 21.0508 79.3469 21.2266 79.1867 21.4609C79.0305 21.6953 78.9113 21.9844 78.8293 22.3281C78.7473 22.6719 78.7063 23.0703 78.7063 23.5234V23.9395C78.7063 24.3887 78.7473 24.7871 78.8293 25.1348C78.9113 25.4785 79.0324 25.7695 79.1926 26.0078C79.3527 26.2422 79.548 26.4199 79.7785 26.541C80.009 26.6621 80.2727 26.7227 80.5695 26.7227C80.8664 26.7227 81.1301 26.6621 81.3605 26.541C81.591 26.4199 81.7844 26.2422 81.9406 26.0078C82.0969 25.7695 82.216 25.4785 82.298 25.1348C82.3801 24.7871 82.4211 24.3887 82.4211 23.9395ZM85.6121 19.4688H88.7937C89.4461 19.4688 90.0066 19.5664 90.4754 19.7617C90.948 19.957 91.3113 20.2461 91.5652 20.6289C91.8191 21.0117 91.9461 21.4824 91.9461 22.041C91.9461 22.498 91.868 22.8906 91.7117 23.2188C91.5594 23.543 91.3426 23.8145 91.0613 24.0332C90.784 24.248 90.4578 24.4199 90.0828 24.5488L89.5262 24.8418H86.7605L86.7488 23.4707H88.8055C89.1141 23.4707 89.3699 23.416 89.573 23.3066C89.7762 23.1973 89.9285 23.0449 90.0301 22.8496C90.1355 22.6543 90.1883 22.4277 90.1883 22.1699C90.1883 21.8965 90.1375 21.6602 90.0359 21.4609C89.9344 21.2617 89.7801 21.1094 89.573 21.0039C89.366 20.8984 89.1062 20.8457 88.7937 20.8457H87.3699V28H85.6121V19.4688ZM90.3816 28L88.4363 24.1973L90.2937 24.1855L92.2625 27.918V28H90.3816ZM99.1742 26.6289V28H94.6332V26.6289H99.1742ZM95.2074 19.4688V28H93.4496V19.4688H95.2074ZM98.5824 22.9434V24.2793H94.6332V22.9434H98.5824ZM99.1684 19.4688V20.8457H94.6332V19.4688H99.1684Z" fill="white"/>
</svg>
